<?xml version="1.0" standalone="no"?>
<!DOCTYPE svg PUBLIC "-//W3C//DTD SVG 20010904//EN"
 "http://www.w3.org/TR/2001/REC-SVG-20010904/DTD/svg10.dtd">
<svg version="1.0" xmlns="http://www.w3.org/2000/svg"
 width="500.000000pt" height="500.000000pt" viewBox="0 0 500.000000 500.000000"
 preserveAspectRatio="xMidYMid meet">

<g transform="translate(0.000000,500.000000) scale(0.100000,-0.100000)"
fill="#000000" stroke="none">
<path d="M1117 3422 c-9 -15 -50 -77 -90 -139 -39 -62 -97 -151 -127 -199 -61
-96 -81 -128 -162 -254 -30 -47 -87 -137 -128 -200 -40 -63 -96 -151 -125
-195 -29 -44 -80 -125 -115 -180 -35 -55 -91 -143 -125 -195 -34 -52 -78 -121
-98 -153 l-37 -57 342 2 343 3 55 97 c30 53 63 110 72 127 l17 31 508 0 508
-1 31 -52 c17 -29 51 -87 75 -129 l44 -78 338 0 c185 0 337 2 337 5 0 2 -25
44 -56 92 -32 48 -77 120 -102 158 -24 39 -55 86 -67 105 -12 19 -49 76 -81
127 -33 51 -103 161 -157 245 -54 84 -121 189 -149 233 -28 44 -65 103 -83
130 -17 28 -66 104 -109 170 -165 257 -198 309 -203 322 -4 10 -66 13 -322 13
l-316 0 -18 -28z m418 -574 c44 -77 91 -161 106 -187 14 -25 38 -68 53 -94 16
-26 26 -50 24 -53 -3 -2 -127 -3 -275 -2 l-271 3 41 70 c22 39 56 97 75 130
19 33 45 78 57 100 74 132 99 175 104 175 3 -1 42 -64 86 -142z"/>
<path d="M2980 2650 l0 -800 965 0 965 0 0 200 0 200 -630 0 -631 0 3 123 3
122 493 3 492 2 0 150 0 150 -492 2 -493 3 0 125 0 125 583 3 582 2 0 195 0
195 -920 0 -920 0 0 -800z"/>
</g>
</svg>
